<?xml version="1.0" encoding="UTF-8" standalone="no"?>
<svg width="21px" height="22px" viewBox="0 0 21 22" version="1.1" xmlns="http://www.w3.org/2000/svg" xmlns:xlink="http://www.w3.org/1999/xlink">
    <!-- Generator: Sketch 41.2 (35397) - http://www.bohemiancoding.com/sketch -->
    <title>Group</title>
    <desc>Created with Sketch.</desc>
    <defs></defs>
    <g id="Page-1" stroke="none" stroke-width="1" fill="none" fill-rule="evenodd">
        <g id="Page-13" transform="translate(-296.000000, -66.000000)">
            <g id="Group-9" transform="translate(160.000000, 66.000000)">
                <g id="Group" transform="translate(136.000000, 0.000000)">
                    <path d="M10.5,0 C4.71332867,0 0,4.83253324 0,10.7747243 C0,16.7169081 4.71332867,21.5419735 10.5,21.5419735 C16.2866713,21.5419735 21,16.7169081 21,10.7747243 C21,4.83253324 16.2866713,0 10.5,0 Z M10.5,1.42916585 C15.530578,1.42916585 19.586399,5.60890571 19.586399,10.7747243 C19.586399,15.9405117 15.530578,20.1128077 10.5,20.1128077 C5.469422,20.1128077 1.413601,15.9405117 1.413601,10.7747243 C1.413601,5.60890571 5.469422,1.42916585 10.5,1.42916585 Z" id="Shape" fill="#214175"></path>
                    <path d="M6.76142721,11.5217391 C6.34090257,11.5217391 6,11.1840159 6,10.7608696 L6,10.7608696 C6,10.3406529 6.33115248,10 6.76142721,10 L14.5430841,10 C14.9636087,10 15.3045113,10.3377232 15.3045113,10.7608696 L15.3045113,10.7608696 C15.3045113,11.1810862 14.9733588,11.5217391 14.5430841,11.5217391" id="Rectangle-7" fill="#244475"></path>
                </g>
            </g>
        </g>
    </g>
</svg>