<?xml version="1.0" encoding="UTF-8" standalone="no"?>
<svg width="21px" height="22px" viewBox="0 0 21 22" version="1.1" xmlns="http://www.w3.org/2000/svg" xmlns:xlink="http://www.w3.org/1999/xlink">
    <!-- Generator: Sketch 41.2 (35397) - http://www.bohemiancoding.com/sketch -->
    <title>Group 2 Copy 26</title>
    <desc>Created with Sketch.</desc>
    <defs></defs>
    <g id="Page-1" stroke="none" stroke-width="1" fill="none" fill-rule="evenodd">
        <g id="Page-13" transform="translate(-160.000000, -66.000000)">
            <g id="Group-9" transform="translate(160.000000, 66.000000)">
                <g id="Group-5">
                    <g id="Group-2-Copy-26">
                        <path d="M10.5,0 C4.71332867,0 0,4.83253324 0,10.7747243 C0,16.7169081 4.71332867,21.5419735 10.5,21.5419735 C16.2866713,21.5419735 21,16.7169081 21,10.7747243 C21,4.83253324 16.2866713,0 10.5,0 Z M10.5,1.42916585 C15.530578,1.42916585 19.586399,5.60890571 19.586399,10.7747243 C19.586399,15.9405117 15.530578,20.1128077 10.5,20.1128077 C5.469422,20.1128077 1.413601,15.9405117 1.413601,10.7747243 C1.413601,5.60890571 5.469422,1.42916585 10.5,1.42916585 Z" id="Shape" fill="#214175"></path>
                        <rect id="Rectangle-7" fill="#244475" x="9.73913043" y="6.20300752" width="1.52173913" height="9.30451128" rx="0.760869565"></rect>
                        <rect id="Rectangle-7" fill="#244475" transform="translate(10.500000, 10.855263) rotate(-90.000000) translate(-10.500000, -10.855263) " x="9.73913043" y="6.20300752" width="1.52173913" height="9.30451128" rx="0.760869565"></rect>
                    </g>
                </g>
            </g>
        </g>
    </g>
</svg>