<?xml version="1.0" encoding="UTF-8"?><svg xmlns="http://www.w3.org/2000/svg" viewBox="0 0 24 24"><defs><style>.e{fill:#dd001b;}</style></defs><g id="a"/><g id="b"><g id="c"><path id="d" class="e" d="M12,0C5.37,0,0,5.37,0,12c0,5.08,3.16,9.43,7.63,11.18-.1-.95-.2-2.41,.04-3.45,.22-.94,1.41-5.96,1.41-5.96,0,0-.36-.72-.36-1.78,0-1.67,.97-2.91,2.17-2.91,1.02,0,1.52,.77,1.52,1.69,0,1.03-.66,2.57-.99,4-.28,1.19,.6,2.17,1.78,2.17,2.13,0,3.77-2.25,3.77-5.5,0-2.87-2.06-4.88-5.01-4.88-3.41,0-5.42,2.56-5.42,5.21,0,1.03,.4,2.14,.89,2.74,.1,.12,.11,.22,.08,.34-.09,.38-.29,1.19-.33,1.36-.05,.22-.17,.27-.4,.16-1.5-.7-2.44-2.89-2.44-4.65,0-3.79,2.75-7.26,7.93-7.26,4.16,0,7.4,2.97,7.4,6.93s-2.61,7.46-6.23,7.46c-1.22,0-2.36-.63-2.75-1.38,0,0-.6,2.29-.75,2.85-.27,1.04-1,2.35-1.49,3.15,1.12,.35,2.32,.54,3.55,.54,6.63,0,12-5.37,12-12S18.63,0,12,0Z"/></g></g></svg>